<?xml version="1.0" encoding="utf-8"?>
<!-- Generator: Adobe Illustrator 16.0.0, SVG Export Plug-In . SVG Version: 6.00 Build 0)  -->
<!DOCTYPE svg PUBLIC "-//W3C//DTD SVG 1.1//EN" "http://www.w3.org/Graphics/SVG/1.1/DTD/svg11.dtd">
<svg version="1.1" id="Layer_1" xmlns="http://www.w3.org/2000/svg" xmlns:xlink="http://www.w3.org/1999/xlink" x="0px" y="0px"
	 width="1024px" height="1024px" viewBox="0 0 1024 1024" enable-background="new 0 0 1024 1024" xml:space="preserve">
<path d="M735.664,633.015l-60.872-60.112c14.725-27.16,23.118-58.254,23.118-91.32c0-106.003-85.932-191.934-191.935-191.934
	c-106.002,0-191.933,85.931-191.933,191.934c0,106.001,85.931,191.934,191.933,191.934c37.804,0,73.049-10.936,102.759-29.807
	c3.254-2.066,6.439-4.233,9.557-6.486l56.949,56.218c16.685,16.686,33.448,7.198,50.134-9.488
	C742.062,667.267,752.35,649.701,735.664,633.015z M551.435,583.023c-13.878,6.227-29.264,9.695-45.459,9.695
	c-61.378,0-111.136-49.759-111.136-111.138c0-61.378,49.757-111.136,111.136-111.136c61.378,0,111.136,49.758,111.136,111.136
	c0,12.619-2.107,24.743-5.98,36.048C601.131,546.803,579.333,570.499,551.435,583.023z"/>
<path d="M835.937,180.616L677.744,22.422v90.811c-23.208,0.38-166.06,4.189-283.233,41.017
	C99.978,246.822,109.825,497.546,109.825,497.546S154.24,302.55,400.688,252.622c102.354-20.736,241.909-13.926,277.056-11.761
	v97.947L835.937,180.616z"/>
<path d="M920.048,512.037c0,0-44.417,194.996-290.864,244.925c-97.559,19.764-228.912,14.504-271.441,12.093V654.473
	L183.247,828.969l174.496,174.493V896.234c35.097-0.858,167.666-6.343,277.619-40.9
	C929.895,762.762,920.048,512.037,920.048,512.037z"/>
<g>
</g>
<g>
</g>
<g>
</g>
<g>
</g>
<g>
</g>
<g>
</g>
</svg>
